Coordinates
version=1
nRows=11
nColumns=63
inDegrees=yes

Units are S.I. units (second, meters, Newtons, ...)
If the header above contains a line with 'inDegrees', this indicates whether rotational values are in degrees (yes) or radians (no).

endheader
time	pelvis_tilt	pelvis_list	pelvis_rotation	pelvis_tx	pelvis_ty	pelvis_tz	hip_flexion_r	hip_adduction_r	hip_rotation_r	knee_angle_r	knee_angle_r_beta	ankle_angle_r	subtalar_angle_r	mtp_angle_r	hip_flexion_l	hip_adduction_l	hip_rotation_l	knee_angle_l	knee_angle_l_beta	ankle_angle_l	subtalar_angle_l	mtp_angle_l	L5_S1_Flex_Ext	L5_S1_Lat_Bending	L5_S1_axial_rotation	L4_L5_Flex_Ext	L4_L5_Lat_Bending	L4_L5_axial_rotation	L3_L4_Flex_Ext	L3_L4_Lat_Bending	L3_L4_axial_rotation	L2_L3_Flex_Ext	L2_L3_Lat_Bending	L2_L3_axial_rotation	L1_L2_Flex_Ext	L1_L2_Lat_Bending	L1_L2_axial_rotation	L1_T12_Flex_Ext	L1_T12_Lat_Bending	L1_T12_axial_rotation	Abs_r3	Abs_r2	Abs_r1	Abs_t1	Abs_t2	neck_flexion	neck_bending	neck_rotation	arm_flex_r	arm_add_r	arm_rot_r	elbow_flex_r	pro_sup_r	wrist_flex_r	wrist_dev_r	arm_flex_l	arm_add_l	arm_rot_l	elbow_flex_l	pro_sup_l	wrist_flex_l	wrist_dev_l
7.232558	5.217176	-24.890899	86.512282	0.154406	0.772250	0.582561	31.497246	-1.055413	-15.651414	18.521396	0.323259	33.640889	17.684386	0.000000	29.040397	-2.825477	-15.601026	17.540995	0.306148	29.315009	13.908714	0.000000	-0.240727	1.213653	-2.642878	-0.447054	1.614158	-2.808058	-0.395490	2.950875	-2.808058	-0.275127	2.950875	-2.312518	-0.223539	2.474880	-2.147338	-0.137551	1.879948	-1.982159	-1.719489	13.729081	-14.698895	0.000000	0.000000	12.854907	-0.642594	14.854460	-2.697557	-23.673048	46.645190	19.214049	51.700642	-2.487055	-10.281040	20.689938	-4.396820	141.880126	0.955928	2.508773	-13.259829	-16.177589
7.255814	5.186093	-24.176022	86.264428	0.155040	0.774397	0.580050	30.207884	-0.926335	-15.873165	17.854483	0.311620	33.101845	17.888193	0.000000	26.998166	-2.504449	-14.359336	15.312443	0.267253	28.304001	12.568299	0.000000	-0.227970	1.181652	-2.475369	-0.423364	1.571597	-2.630079	-0.374533	2.873069	-2.630079	-0.260547	2.873069	-2.165948	-0.211693	2.409625	-2.011237	-0.130262	1.830379	-1.856527	-1.628370	13.367085	-13.767259	0.000000	0.000000	13.204039	-0.650446	14.545263	-1.247582	-23.692272	60.650122	16.631112	43.394267	-2.348468	-11.213824	20.933218	-4.280438	142.760480	0.931815	2.538843	-11.741510	-16.475447
7.279070	5.104433	-23.469653	85.996063	0.155781	0.776478	0.577580	28.966021	-0.829093	-16.060330	17.240817	0.300909	32.597555	18.068225	0.000000	24.968733	-2.135435	-12.844600	13.068999	0.228097	27.195800	10.840475	0.000000	-0.213277	1.141369	-2.256128	-0.396077	1.518021	-2.397136	-0.350393	2.775125	-2.397136	-0.243755	2.775125	-1.974112	-0.198049	2.327480	-1.833104	-0.121867	1.767981	-1.692096	-1.523418	12.911397	-12.547907	0.000000	0.000000	13.425211	-0.681995	13.972627	0.355533	-23.558593	75.450211	13.997281	34.932482	-2.264806	-12.244694	21.376540	-4.092401	143.914407	0.898719	2.566390	-10.084551	-16.706006
7.302326	4.972852	-22.792467	85.725652	0.156657	0.778441	0.575301	27.811756	-0.767336	-16.210382	16.692187	0.291334	32.137704	18.197645	0.000000	23.039339	-1.746903	-11.416950	10.920192	0.190593	26.084445	9.201238	0.000000	-0.197279	1.091601	-1.989768	-0.366366	1.451830	-2.114129	-0.324109	2.654119	-2.114129	-0.225470	2.654119	-1.741047	-0.183193	2.225993	-1.616687	-0.112725	1.690890	-1.492326	-1.409142	12.348411	-11.066494	0.000000	0.000000	13.513251	-0.749863	13.088032	2.085182	-23.310014	90.579183	11.451938	26.556963	-2.110960	-13.368197	22.010124	-3.841538	145.098530	0.860539	2.563510	-8.330498	-16.932596
7.325581	4.800489	-22.159116	85.519500	0.157655	0.780256	0.573371	26.774472	-0.775254	-16.431788	16.233994	0.283337	31.746570	18.331650	0.000000	21.276559	-1.337519	-10.066268	8.940997	0.156050	24.974232	7.678254	0.000000	-0.181489	1.031013	-1.694314	-0.337044	1.371248	-1.800209	-0.298169	2.506805	-1.800209	-0.207424	2.506805	-1.482525	-0.168531	2.102442	-1.376630	-0.103703	1.597039	-1.270736	-1.296361	11.663027	-9.423267	0.000000	0.000000	13.463387	-0.803738	11.899939	3.883094	-22.907623	105.045647	9.123511	18.966927	-1.691544	-14.534518	22.836128	-3.561102	146.185693	0.814896	2.502684	-6.394630	-17.122893
7.348837	4.572232	-21.588103	85.361806	0.158830	0.781876	0.571925	25.898841	-0.858738	-16.685965	15.892594	0.277378	31.434587	18.449053	0.000000	19.741947	-0.924485	-8.917619	7.215397	0.125932	23.878939	6.367570	0.000000	-0.167298	0.956165	-1.382600	-0.310689	1.271699	-1.469012	-0.274854	2.324819	-1.469012	-0.191205	2.324819	-1.209775	-0.155353	1.949811	-1.123362	-0.095594	1.481099	-1.036950	-1.194991	10.816326	-7.689606	0.000000	0.000000	13.287424	-0.824483	10.454674	5.741239	-22.393059	118.475454	7.069205	12.191661	-1.257856	-15.798356	23.824237	-3.296174	147.239255	0.763174	2.335582	-4.497088	-17.232191
7.372093	4.307571	-21.114306	85.291464	0.160147	0.783208	0.571082	25.229825	-1.025186	-17.017242	15.689769	0.273838	31.193263	18.552132	0.000000	18.533208	-0.534220	-8.006478	5.855795	0.102203	22.848434	5.329812	0.000000	-0.154096	0.869871	-1.071587	-0.286171	1.156929	-1.138561	-0.253164	2.115005	-1.138561	-0.176116	2.115005	-0.937639	-0.143093	1.773842	-0.870664	-0.088050	1.347431	-0.803690	-1.100691	9.840158	-5.959845	0.000000	0.000000	13.053755	-0.849238	8.848597	7.614566	-21.761176	130.335345	5.404263	6.522525	-1.192514	-17.067186	24.948352	-3.050132	148.498905	0.703940	2.119245	-2.861827	-17.107023
7.395349	4.039259	-20.759822	85.353731	0.161540	0.784195	0.570922	24.785123	-1.260146	-17.429535	15.626762	0.272738	30.997909	18.591870	0.000000	17.726243	-0.199329	-7.348592	4.955066	0.086482	21.955540	4.640139	0.000000	-0.143106	0.777014	-0.779420	-0.265762	1.033428	-0.828134	-0.235108	1.889232	-0.828134	-0.163556	1.889232	-0.681992	-0.132888	1.584487	-0.633279	-0.081771	1.203595	-0.584565	-1.022190	8.789737	-4.334899	0.000000	0.000000	12.850039	-0.915296	7.181454	9.492764	-21.012001	140.170015	4.173932	2.209571	-1.677364	-18.284773	26.186762	-2.821212	150.129765	0.639439	2.032611	-1.578245	-16.705460
7.418605	3.798439	-20.564408	85.566137	0.162951	0.784763	0.571484	24.600061	-1.542581	-17.924467	15.706742	0.274134	30.831890	18.531240	0.000000	17.398118	0.053953	-6.912410	4.574610	0.079842	21.264957	4.324274	0.000000	-0.130927	0.682825	-0.518370	-0.243144	0.908158	-0.550768	-0.215100	1.660222	-0.550768	-0.149636	1.660222	-0.453573	-0.121579	1.392418	-0.421175	-0.074812	1.057697	-0.388777	-0.935197	7.724258	-2.883016	0.000000	0.000000	12.741897	-1.023430	5.548904	11.367455	-20.136558	147.416618	3.341349	-0.481216	-2.641587	-19.422172	27.491915	-2.601958	152.176121	0.573111	2.178826	-0.705681	-16.006246
7.441860	3.558769	-20.508779	85.872813	0.164381	0.784909	0.572769	24.660377	-1.874607	-18.448858	15.932663	0.278077	30.708684	18.353968	0.000000	17.527763	0.215136	-6.840201	4.729958	0.082553	20.819037	4.527100	0.000000	-0.120809	0.585593	-0.294211	-0.224355	0.778839	-0.312599	-0.198477	1.423812	-0.312599	-0.138073	1.423812	-0.257434	-0.112183	1.194142	-0.239046	-0.069030	0.907084	-0.220658	-0.862927	6.624349	-1.636312	0.000000	0.000000	12.745181	-1.111422	4.078522	13.281235	-19.129917	151.806256	2.766500	-1.436663	-4.014922	-20.447315	28.828352	-2.418651	154.743995	0.503476	2.517043	-0.240699	-15.015198
7.465116	3.353356	-20.602997	86.275903	0.165724	0.784600	0.574802	24.979100	-2.234814	-18.990552	16.298964	0.284471	30.615321	18.046509	0.000000	18.146006	0.278861	-7.067547	5.438207	0.094915	20.595226	5.192178	0.000000	-0.111551	0.492229	-0.114790	-0.207161	0.654665	-0.121965	-0.183267	1.196807	-0.121965	-0.127492	1.196807	-0.100442	-0.103586	1.003754	-0.093267	-0.063740	0.762463	-0.086093	-0.796797	5.568198	-0.638430	0.000000	0.000000	12.863285	-1.168861	2.875483	15.241712	-18.003187	153.019821	2.374963	-0.465671	-5.608440	-21.194037	30.160171	-2.261537	157.640299	0.434254	3.022143	-0.047036	-13.816122
